<?xml version="1.0" encoding="UTF-8" standalone="no"?>
<!DOCTYPE svg PUBLIC "-//W3C//DTD SVG 1.1//EN" "http://www.w3.org/Graphics/SVG/1.1/DTD/svg11.dtd">
<!-- Created with Vectornator (http://vectornator.io/) -->
<svg height="100%" stroke-miterlimit="10" style="fill-rule:nonzero;clip-rule:evenodd;stroke-linecap:round;stroke-linejoin:round;" version="1.1" viewBox="1261.9 796.175 828.156 804.978" width="100%" xml:space="preserve" xmlns="http://www.w3.org/2000/svg" xmlns:vectornator="http://vectornator.io" xmlns:xlink="http://www.w3.org/1999/xlink">
<defs/>
<g id="Capa-1" vectornator:layerName="Capa 1">
<path d="M1731.34 801.208C1708.61 808.178 1696.17 825.916 1693.42 850.231C1691.84 864.21 1690.39 878.223 1689.8 892.279C1689.24 905.772 1689.25 919.308 1690 932.793C1690.93 949.588 1692.72 966.334 1694.82 983.024C1696.06 992.92 1697.35 1002.88 1700.01 1012.49C1704.7 1029.45 1723.01 1037.29 1737.18 1043.55C1742.45 1045.88 1748.08 1047.38 1753.71 1048.64C1759.14 1049.85 1764.68 1050.89 1770.24 1050.95C1779.34 1051.05 1788.55 1050.91 1797.47 1049.1C1840.64 1040.36 1869.24 977.761 1872.28 938.451C1873.6 921.476 1874.32 903.265 1870.28 886.417C1864.6 862.708 1850.45 842.352 1832.47 826.182C1801.77 798.568 1769.78 789.424 1731.34 801.208ZM1539.78 808.607C1502.21 828.73 1487.98 860.069 1472.5 899.544C1459.96 931.534 1456.67 959.473 1467.09 992.678C1482.83 1042.82 1528.15 1084.27 1584.27 1074.77C1591.28 1073.58 1598.37 1071.85 1604.69 1068.58C1619.22 1061.08 1627.86 1049.16 1634.95 1034.76C1656.37 991.299 1643.21 958.483 1636.29 911.743C1629.76 867.584 1633.86 801.811 1570.24 801.807C1555.46 801.805 1552.27 801.918 1539.78 808.607ZM1980.28 985.278C1929.74 998.105 1880.71 1076.73 1894.71 1130.27C1907.88 1180.65 1954.42 1240.6 2012.92 1224.67C2033.84 1218.98 2054.16 1209.21 2068.77 1192.76C2085.95 1173.42 2091.2 1139.9 2089.86 1115.3C2087.13 1065.18 2073.92 1036.52 2037.47 1003.89C2018.59 986.993 2004.01 979.257 1980.28 985.278ZM1339.46 1009.33C1331.38 1011.01 1324.31 1016.12 1317.53 1020.84C1281.27 1046.1 1257.31 1109.49 1262.64 1152.7C1272.83 1235.23 1349.61 1295.54 1430.22 1257.14C1454.96 1245.35 1468.14 1223.94 1477.42 1198.72C1494.63 1151.99 1471.74 1106.97 1448.37 1066.68C1422.91 1022.76 1389.98 998.811 1339.46 1009.33ZM1653.55 1090.73C1625.27 1096.79 1598.08 1112.29 1577.64 1132.75C1568.34 1142.06 1560.93 1153.16 1553.88 1164.26C1529.66 1202.4 1509.88 1243.37 1483.93 1280.35C1476.45 1291 1465.31 1298.78 1454.45 1305.96C1438.73 1316.34 1419.95 1321.7 1404.65 1332.7C1395.46 1339.31 1388.24 1348.58 1382.01 1358.04C1365.33 1383.39 1351.18 1414.2 1348.46 1444.99C1346.66 1465.44 1346.33 1486.31 1349.71 1506.56C1351.7 1518.52 1357.62 1529.76 1364.28 1539.9C1384.66 1570.89 1430.34 1586.9 1462.96 1595.76C1487.54 1602.44 1518.98 1601.62 1543.18 1596C1580.47 1587.34 1616.13 1572.33 1653.55 1564.31C1676.12 1559.48 1699.39 1557.83 1722.47 1557.61C1737.09 1557.47 1752.11 1558.58 1765.98 1563.22C1792.41 1572.05 1815.59 1589.32 1842.2 1597.61C1855.59 1601.79 1870.28 1601.8 1884.2 1600.07C1905.34 1597.43 1926.05 1591.46 1946.25 1584.66C1965.99 1578.02 1985.43 1570.02 2003.62 1559.86C2017.19 1552.29 2028.42 1531.05 2033.88 1518.24C2039.23 1505.7 2044.02 1492.84 2047.38 1479.62C2060.36 1428.54 2051.22 1383.53 2020.45 1340.59C1990.38 1298.61 1942.28 1273.01 1905.28 1236.99C1871.86 1204.45 1843.96 1166.67 1812.12 1132.58C1768.82 1086.23 1711.74 1078.26 1653.55 1090.73ZM1784.83 1307.17C1777.12 1293.92 1766.38 1282.01 1761.7 1267.41C1754.52 1244.99 1754.92 1220.77 1749.78 1197.8C1748.77 1193.28 1746.74 1188.65 1743.36 1185.48C1741.62 1183.85 1738.59 1185.21 1736.21 1185.07C1739.97 1178.31 1745.88 1172.35 1747.51 1164.78C1748.65 1159.51 1747.87 1152.74 1743.99 1149C1735.72 1141.04 1724.27 1137.14 1713.84 1132.35C1697.76 1124.97 1680.58 1114.63 1666.19 1127.72C1657.26 1118.8 1647.92 1121.77 1637.08 1129.69C1625.82 1137.92 1614.76 1146.75 1605.66 1157.32C1599.81 1164.13 1599.58 1175.03 1592.91 1181.04C1579.77 1192.9 1561.86 1198.35 1547.99 1209.35C1543.85 1212.62 1539.66 1217.73 1539.96 1223C1540.49 1232.38 1544.84 1241.55 1550.24 1249.23C1554.53 1255.34 1561.21 1259.75 1567.98 1262.89C1579.35 1268.15 1591.52 1271.97 1603.88 1274.06C1613.5 1275.68 1623.38 1273.93 1633.13 1273.87C1632.37 1286.41 1625.34 1297.83 1622.98 1310.18C1619.19 1330.05 1619.84 1350.6 1616.25 1370.51C1610.57 1402.01 1600.5 1432.62 1595.21 1464.19C1590.26 1493.68 1591.58 1524.09 1585.6 1553.39C1584.3 1559.8 1578.53 1564.55 1573.8 1569.08C1563.14 1579.3 1546.58 1581.31 1532.03 1583.83C1485.75 1591.84 1440.68 1577.44 1400.45 1555.21C1391.76 1550.41 1372.44 1532.13 1368.82 1521.77C1364.41 1509.14 1361.72 1495.65 1361.71 1482.28C1361.7 1461.62 1363.35 1440.65 1368.76 1420.71C1374.08 1401.1 1383.52 1382.69 1393.54 1365.02C1397.58 1357.89 1403.74 1351.88 1410.45 1347.18C1427.13 1335.47 1446.43 1327.85 1463.14 1316.19C1474.89 1307.99 1487.22 1299.58 1495.47 1287.86C1522.71 1249.2 1542.63 1205.79 1568.71 1166.34C1597.56 1122.71 1641.34 1100.62 1693.42 1098.13C1705.5 1097.55 1717.59 1100.15 1729.4 1102.75C1762.68 1110.09 1786.67 1128.08 1802.51 1158.6C1829.14 1209.89 1821.11 1263.03 1784.83 1307.17ZM1679.81 1216.52C1687.05 1223.41 1691.34 1226.06 1701.2 1227.62C1690.22 1227.62 1687.03 1224.77 1679.81 1216.52ZM1829.56 1307.17C1821.62 1314.49 1813.55 1322.84 1810.11 1333.07C1816.92 1325.67 1816.92 1325.67 1823.72 1318.27C1819.83 1324.44 1811.37 1329.51 1812.05 1336.77C1812.95 1346.33 1823.03 1352.56 1827.73 1360.94C1837.83 1378.93 1842.07 1403.12 1838.89 1423.5C1835.28 1446.68 1799.03 1431.62 1789.14 1459.1C1786.75 1465.75 1795.39 1472.06 1799.11 1474.48C1808.59 1480.62 1820.39 1483.46 1828.59 1491.24C1845.15 1506.96 1856.63 1527.39 1872.34 1543.97C1877.52 1549.42 1884.03 1553.68 1890.82 1556.91C1903.33 1562.87 1917.58 1549.45 1931.27 1547.34C1946.47 1545 1962.46 1549.59 1977.36 1545.82C1990.72 1542.43 2000.61 1528.71 2014.31 1527.32C2002.1 1539.06 1995.19 1549.15 1977.73 1553.04C1962 1556.54 1944.82 1553.14 1929.72 1558.76C1917.8 1563.2 1910.36 1575.4 1899.57 1582.12C1892.12 1586.76 1871.36 1587.59 1864.81 1587.21C1831.86 1585.3 1808.65 1557.26 1776.99 1551.71C1757.6 1548.32 1737.79 1547.89 1718.29 1545.17C1684.16 1540.41 1675.99 1520.14 1673.49 1487.31C1672.48 1474.17 1671.54 1460.84 1673.24 1447.77C1676.84 1420.09 1697.22 1397.11 1712.87 1374C1729.6 1349.29 1753.15 1339.06 1779.96 1326.6C1795.63 1319.32 1811.53 1312.54 1827.61 1306.25C1828.28 1305.98 1828.91 1306.86 1829.56 1307.17ZM1759.54 1379.32C1767.58 1379.32 1765.66 1361.68 1769.94 1355.21C1774.78 1347.89 1791.4 1335.48 1796.5 1347.87C1800.51 1328.77 1779.96 1341.51 1772.31 1347.23C1760.06 1356.39 1759.76 1364.48 1759.54 1379.32Z" fill="#ffffff" fill-rule="nonzero" opacity="1" stroke="none" vectornator:layerName="Curva 1"/>
</g>
</svg>
